<svg width="226" height="67" viewBox="0 0 226 67" fill="none" xmlns="http://www.w3.org/2000/svg">
<g clip-path="url(#clip0_7_2)">
<path d="M32.7655 0.15886C34.6621 0.0775146 36.561 0.058863 38.459 0.102929C47.8624 0.355343 57.6425 3.17139 64.1542 10.2C70.0026 16.5126 72.1383 24.4045 71.9055 32.8525C71.6847 40.8725 68.7869 48.5848 62.8971 54.1498C55.9601 60.7043 46.3486 63.0345 37.0259 63.1744C35.1663 63.2023 33.3908 63.0704 31.5343 63.0149L30.5 63.8408C25.3086 67.462 19.6762 67.8966 13.8026 65.7556C16.8613 64.1782 18.0374 63.0986 20.4182 60.6842C16.5581 59.0901 13.8453 57.776 10.5768 55.0437C-1.92239 44.5955 -2.90089 23.413 7.49232 11.2091C13.9036 3.68078 23.1138 0.886217 32.7655 0.15886Z" fill="#1BD027"/>
<path d="M34.3594 8.28524C36.8734 7.84615 36.9222 10.4821 37.1919 12.2209C40.8957 12.5198 45.1484 14.048 47.0279 17.5301C48.595 20.4331 43.6796 20.5233 42.2425 20.8981C39.2652 21.6749 38.9875 19.5466 36.4836 18.9399C32.8633 18.1797 28.504 21.5924 30.324 25.38C32.0991 29.0745 36.5034 27.6762 39.5887 27.6736C44.3339 27.6609 49.6221 29.5651 51.5721 34.2566C54.6018 41.5453 50.5122 47.2355 43.9615 50.156C44.0923 51.0972 44.7372 53.212 44.0671 53.9707C42.9549 55.1265 40.8511 55.1297 39.3502 55.3969C38.301 55.5837 37.6605 55.5071 36.8583 54.8629C36.3768 54.1049 36.1919 52.4579 36.0414 51.5338C31.3041 51.326 26.871 49.4249 24.5541 45.149C22.885 41.7954 26.2955 41.6175 28.4484 41.255C30.8408 40.7883 31.4753 40.5338 33.0908 42.6158C35.5272 45.7558 42.5017 44.3221 43.7519 40.7063C44.1716 39.463 44.0781 38.1049 43.4919 36.9302C42.5371 35.0391 40.3514 34.186 38.313 34.238C37.1506 34.2931 36.031 34.5436 34.8641 34.5695C27.7519 34.7126 19.6583 28.2335 22.1737 20.6125C23.046 17.9695 25.2786 15.77 27.6576 14.4028C28.1833 14.1007 28.7715 13.8224 29.3186 13.5538C28.1728 8.49446 29.7919 8.99499 34.3594 8.28524Z" fill="#FEFEFE"/>
<path d="M152.563 15.3466C154.833 15.3594 157.104 15.3501 159.375 15.3187L159.371 28.0101C159.438 27.9353 159.506 27.8619 159.577 27.7902C161.602 25.7133 164.007 24.7475 166.875 24.7038C174.036 24.5945 179.145 30.7987 179.058 37.6601C179.003 41.9398 177.878 44.9122 174.838 47.9889C170.159 52.3653 163.599 52.705 159.367 47.5466L159.383 50.954L151.99 50.9614C152.078 47.1154 151.846 15.7794 152.105 15.4289C152.15 15.3661 152.471 15.3577 152.563 15.3466ZM166.665 45.0165C174.445 42.6394 172.744 30.1316 164.407 30.8512C156.203 32.9709 158.448 46.7339 166.665 45.0165Z" fill="white"/>
<path d="M133.027 24.7769C140.542 23.9124 147.336 29.2747 148.2 36.7505C149.063 44.2264 143.668 50.9817 136.152 51.8347C128.643 52.6869 121.861 47.3265 120.999 39.8587C120.136 32.391 125.52 25.6405 133.027 24.7769ZM135.123 45.5063C144.3 44.1098 141.846 30.043 134.115 31.1205C125.891 31.8546 126.152 45.8487 135.123 45.5063Z" fill="white"/>
<path d="M100.46 15.4574C101.196 15.3929 101.935 15.366 102.674 15.3768C108.721 15.4415 112.683 17.771 116.781 21.9322C115.584 23.5148 113.295 25.8736 111.918 27.5351C108.906 24.2561 106.344 22.6148 101.554 22.9496C91.8027 23.5335 88.8098 36.3269 95.8066 42.1645C100.529 46.1045 107.624 44.4739 111.315 39.9765C111.356 39.9462 111.502 39.9057 111.56 39.887C112.303 40.4067 115.562 44.0007 116.577 44.924C106.403 57.3004 85.7146 52.0391 84.0321 35.8107C82.9448 25.3231 89.8374 16.4979 100.46 15.4574Z" fill="white"/>
<path d="M218.116 25.2645L225.568 25.2453C225.606 26.9571 225.577 28.8044 225.578 30.525L225.589 37.3703C225.593 41.3493 225.928 45.8435 222.81 48.8748C220.119 51.4905 217.238 51.7564 213.718 51.7507C210.319 51.8554 207.124 51.3671 204.588 48.8644C201.278 45.5985 201.851 40.2403 201.855 35.9838L201.868 25.2566L209.298 25.2527L209.285 35.8245C209.283 39.5564 208.375 46.4661 214.023 46.1949C218.97 45.9571 218.131 39.3479 218.128 35.872L218.116 25.2645Z" fill="white"/>
<path d="M197.332 24.9176C197.785 24.8837 197.724 24.8245 198.089 24.9948C198.24 26.2725 198.162 30.2256 198.173 31.6914C196.164 31.7073 194.119 31.6781 192.634 33.2357C190.019 35.9762 190.384 40.4133 190.391 43.903L190.396 51.3445C188.009 51.3086 185.556 51.3393 183.164 51.343V49.1946L183.153 25.2906C185.406 25.2022 188.115 25.2675 190.404 25.2623L190.394 28.669C192.542 26.5519 194.278 25.3923 197.332 24.9176Z" fill="white"/>
</g>
<defs>
<clipPath id="clip0_7_2">
<rect width="226" height="67" fill="white"/>
</clipPath>
</defs>
</svg>
