<svg width="96" height="96" viewBox="0 0 96 96" fill="none" xmlns="http://www.w3.org/2000/svg">
<rect width="96" height="96" fill="white"/>
<path d="M44.0025 4.10511C46.521 3.99709 49.0426 3.97232 51.563 4.03084C64.05 4.36602 77.0372 8.10552 85.6842 17.439C93.4504 25.8217 96.2865 36.3015 95.9774 47.5198C95.6842 58.1698 91.8361 68.4111 84.0149 75.801C74.8031 84.5048 62.0398 87.5991 49.6599 87.7849C47.1905 87.822 44.8327 87.6469 42.3675 87.5732L40.994 88.6698C34.1003 93.4786 26.6208 94.0557 18.8212 91.2125C22.8829 89.1179 24.4446 87.6843 27.6062 84.4782C22.4803 82.3613 18.8779 80.6163 14.5375 76.9881C-2.06044 63.1136 -3.35982 34.9849 10.4416 18.779C18.9552 8.78196 31.1857 5.07098 44.0025 4.10511Z" fill="#1BD027"/>
<path d="M46.1191 14.8963C49.4575 14.3132 49.5224 17.8136 49.8804 20.1225C54.7989 20.5195 60.4461 22.5488 62.942 27.1728C65.0229 31.0277 58.4956 31.1475 56.5873 31.6453C52.6337 32.6768 52.2649 29.8506 48.9399 29.0449C44.1324 28.0354 38.3436 32.5672 40.7604 37.5968C43.1176 42.5029 48.9662 40.646 53.0633 40.6426C59.3644 40.6257 66.3868 43.1544 68.9763 49.3843C72.9995 59.0631 67.5688 66.6193 58.87 70.4975C59.0436 71.7473 59.9 74.5556 59.0102 75.5631C57.5334 77.098 54.7396 77.1022 52.7465 77.457C51.3533 77.7051 50.5027 77.6034 49.4374 76.748C48.7981 75.7413 48.5525 73.5543 48.3527 72.3272C42.0619 72.0511 36.175 69.5266 33.0984 63.8486C30.882 59.3953 35.4109 59.159 38.2697 58.6777C41.4467 58.0579 42.2893 57.7199 44.4345 60.4847C47.6699 64.6544 56.9315 62.7505 58.5917 57.949C59.149 56.298 59.0248 54.4946 58.2464 52.9347C56.9785 50.4234 54.0761 49.2905 51.3692 49.3597C49.8257 49.4327 48.3389 49.7654 46.7894 49.7999C37.3449 49.9898 26.5972 41.3861 29.9374 31.266C31.0958 27.7563 34.0604 24.8355 37.2196 23.02C37.9178 22.6188 38.6988 22.2492 39.4253 21.8925C37.9038 15.1741 40.0538 15.8388 46.1191 14.8963Z" fill="#FEFEFE"/>
</svg>
