<svg width="250" height="67" viewBox="0 0 250 67" fill="none" xmlns="http://www.w3.org/2000/svg">
<path d="M37.137 3.02138C45.8144 3.25431 54.8399 5.85277 60.8489 12.3388C66.2458 18.164 68.216 25.4472 68.0012 33.2431C67.7974 40.6437 65.1236 47.7602 59.6887 52.8954C53.2872 58.9439 44.4177 61.0944 35.8147 61.2235C34.0987 61.2493 32.4603 61.1273 30.7473 61.0761L29.7922 61.8388C25.0017 65.1802 19.804 65.5811 14.384 63.6054C17.2066 62.1498 18.2924 61.1537 20.4895 58.9257C16.9274 57.4546 14.4237 56.2419 11.4075 53.7206C-0.126562 44.0791 -1.02974 24.5322 8.56078 13.2704C14.477 6.32333 22.9765 3.74437 31.883 3.07314C33.6331 2.99808 35.3856 2.98073 37.137 3.02138ZM35.968 14.204C35.7192 12.5995 35.6737 10.167 33.3537 10.5722C29.1393 11.227 27.6453 10.7653 28.7024 15.4335C28.1976 15.6813 27.6553 15.9389 27.1702 16.2177C24.975 17.4792 22.9147 19.5084 22.1096 21.9472C19.7885 28.9797 27.2565 34.9588 33.8196 34.827C34.8962 34.8031 35.9297 34.5722 37.0022 34.5214C38.8833 34.4733 40.9004 35.2606 41.7815 37.0058C42.3224 38.0897 42.409 39.3428 42.0217 40.4901C40.868 43.8268 34.4321 45.1495 32.1838 42.2519C30.6931 40.3307 30.1073 40.5663 27.8996 40.997C25.913 41.3314 22.7658 41.4951 24.3059 44.5897C26.4439 48.5355 30.5349 50.2895 34.9065 50.4813C35.0454 51.3341 35.2161 52.854 35.6604 53.5536C36.4006 54.1479 36.9913 54.2191 37.9592 54.0468C39.3442 53.8003 41.2864 53.797 42.3127 52.7304C42.9307 52.0301 42.3357 50.0783 42.2151 49.2099C48.2599 46.5148 52.0342 41.2638 49.2385 34.538C47.4389 30.2088 42.5586 28.452 38.1799 28.4638C35.3328 28.4661 31.2682 29.7559 29.6301 26.3466C27.9512 22.8515 31.9739 19.7028 35.3147 20.4042C37.625 20.9642 37.8818 22.9276 40.6291 22.2108C41.9558 21.865 46.4904 21.7816 45.0452 19.1034C43.3107 15.8902 39.3859 14.4799 35.968 14.204Z" fill="white"/>
<path d="M157.629 10.908C160.511 10.9243 163.394 10.9125 166.276 10.8727L166.272 26.9851C166.357 26.8902 166.444 26.7971 166.534 26.706C169.105 24.0692 172.158 22.8431 175.798 22.7876C184.891 22.6489 191.376 30.5255 191.266 39.2365C191.197 44.6697 189.768 48.4435 185.909 52.3494C179.969 57.9056 171.64 58.3369 166.267 51.788L166.287 56.1139L156.902 56.1233C157.014 51.2406 156.719 11.4576 157.048 11.0125C157.105 10.9328 157.513 10.9222 157.629 10.908ZM175.532 48.5759C185.41 45.558 183.249 29.6785 172.666 30.5921C162.25 33.2832 165.1 50.7562 175.532 48.5759Z" fill="white"/>
<path d="M134.185 22.8805C143.725 21.7828 152.351 28.5906 153.448 38.0817C154.544 47.5728 147.694 56.1491 138.152 57.2321C128.62 58.314 120.009 51.5085 118.915 42.0278C117.819 32.547 124.654 23.9769 134.185 22.8805ZM136.846 49.1976C148.497 47.4248 145.382 29.5661 135.566 30.934C125.125 31.8661 125.456 49.6324 136.846 49.1976Z" fill="white"/>
<path d="M96.634 11.0487C97.5685 10.9669 98.5066 10.9326 99.4446 10.9464C107.122 11.0285 112.151 13.9859 117.353 19.2689C115.835 21.2781 112.929 24.2727 111.181 26.3821C107.357 22.2192 104.104 20.1354 98.0226 20.5605C85.6426 21.3018 81.8429 37.5438 90.7258 44.9551C96.7212 49.9571 105.729 47.8869 110.415 42.1772C110.466 42.1387 110.652 42.0874 110.725 42.0636C111.669 42.7234 115.807 47.2861 117.095 48.4584C104.178 64.171 77.9134 57.4915 75.7773 36.8884C74.397 23.5738 83.1475 12.3697 96.634 11.0487Z" fill="white"/>
<path d="M238.521 23.4994L247.982 23.475C248.03 25.6482 247.993 27.9935 247.995 30.178L248.009 38.8685C248.013 43.92 248.439 49.6257 244.48 53.4742C241.064 56.795 237.407 57.1326 232.937 57.1253C228.623 57.2582 224.565 56.6383 221.346 53.4609C217.144 49.3148 217.872 42.5121 217.877 37.1083L217.894 23.4894L227.325 23.4844L227.31 36.906C227.307 41.6439 226.154 50.4162 233.325 50.0718C239.606 49.77 238.54 41.3792 238.536 36.9663L238.521 23.4994Z" fill="white"/>
<path d="M212.975 23.059C213.55 23.0159 213.473 22.9409 213.936 23.157C214.128 24.7791 214.029 29.7978 214.043 31.6588C211.492 31.679 208.896 31.6419 207.01 33.6193C203.691 37.0986 204.154 42.7318 204.163 47.1622L204.17 56.6097C201.138 56.564 198.025 56.603 194.987 56.6077V53.8802L194.973 23.5325C197.834 23.4203 201.273 23.5032 204.179 23.4966L204.167 27.8216C206.894 25.1338 209.098 23.6617 212.975 23.059Z" fill="white"/>
</svg>
